<svg width="27" height="25" viewBox="0 0 27 25" fill="none" xmlns="http://www.w3.org/2000/svg">
<path d="M21.4703 22.6495C21.5152 22.6382 21.5365 22.6172 21.5541 22.5963C21.5619 22.5871 21.5697 22.578 21.5775 22.569C21.6139 22.5274 21.6172 22.4391 21.6163 22.3944C21.6032 22.2887 21.5127 22.216 21.4356 22.216C21.4319 22.216 21.4281 22.2161 21.4257 22.2162C21.3478 22.2216 21.2603 22.3251 21.2669 22.4463C21.2762 22.5628 21.3621 22.6495 21.4337 22.6495H21.4703ZM7.85183 22.6431C7.95074 22.6431 8.03114 22.549 8.03114 22.4334C8.03114 22.3182 7.95074 22.2245 7.85183 22.2245C7.75299 22.2245 7.67252 22.3182 7.67252 22.4334C7.67252 22.549 7.75299 22.6431 7.85183 22.6431ZM21.5935 24.6439C21.5459 24.6439 21.4821 24.6439 21.4337 24.6439C20.2993 24.6439 19.3569 23.7347 19.277 22.5814C19.1971 21.3797 20.0919 20.3081 21.2901 20.2264C21.3389 20.2231 21.3874 20.2215 21.4356 20.2215C22.5712 20.2215 23.53 21.1199 23.6074 22.2727C23.6388 22.8741 23.4629 23.4422 23.0797 23.881C22.6965 24.3361 22.1688 24.5955 21.5935 24.6439ZM7.85183 24.6376C6.65095 24.6376 5.67808 23.6513 5.67808 22.4334C5.67808 21.2163 6.65095 20.2301 7.85183 20.2301C9.05265 20.2301 10.0256 21.2163 10.0256 22.4334C10.0256 23.6513 9.05265 24.6376 7.85183 24.6376ZM20.7947 17.7906H8.76281C8.33109 17.7906 7.94788 17.4981 7.83564 17.0763L3.92077 2.68653H1.17262C0.64577 2.68653 0.214111 2.24866 0.214111 1.71195C0.214111 1.17608 0.64577 0.737244 1.17262 0.737244H4.64056C5.07137 0.737244 5.45458 1.02976 5.56675 1.45254L9.48169 15.8413H20.1556L23.7026 7.55906H11.8789C11.3512 7.55906 10.9195 7.12022 10.9195 6.58448C10.9195 6.04862 11.3512 5.60978 11.8789 5.60978H25.1727C25.4922 5.60978 25.7964 5.77217 25.9715 6.04862C26.1474 6.3241 26.1797 6.66519 26.0513 6.9739L21.6733 17.2054C21.5135 17.5627 21.1779 17.7906 20.7947 17.7906Z" fill="white"/>
</svg>
